# xmcd
#
# Track frame offsets:
# 150
# 9224
# 25395
# 47429
# 66881
# 100844
# 128485
# 154783
# 178467
# 209769
# 245905
# 271224
#
# Disc length: 4088 seconds
#
#
# Revision: 0
# Processed by: cddbd v1.5.2PL0 Copyright (c) Steve Scherf et al.
# Submitted via: FreeRIP 2.944 
#
DISCID=a60ff60c
DTITLE=Deigma Marques - Marcado por Tua Glória
DYEAR=2006
DGENRE=gospel
TTITLE0=Abertura
TTITLE1=Sou Livre
TTITLE2=Quero Te Ver
TTITLE3=Guarda o Meu Coração
TTITLE4=Quem é Esta que Vem?
TTITLE5=Ministração
TTITLE6=Teus Aromas
TTITLE7=Marcado por Tua Glória
TTITLE8=Não Posso Viver
TTITLE9=Toma todo o Meu Ser
TTITLE10=Espírito Santo
TTITLE11=Como Eu Te Amo
EXTD=
EXTT0=
EXTT1=
EXTT2=
EXTT3=
EXTT4=
EXTT5=
EXTT6=
EXTT7=
EXTT8=
EXTT9=
EXTT10=
EXTT11=
PLAYORDER=
